<svg xmlns="http://www.w3.org/2000/svg" width="195.2mm" height="60.7mm" viewBox="0 0 553.3 172.1">
  <defs>
    <style>
      .a {
        fill: #ca3137;
      }
    </style>
  </defs>
  <title>bitovi_logo_red</title>
  <path class="a" d="M43.4,119.8H62.2c4,0,7.1.8,9.1,2.2a7,7,0,0,1,3,5.9v0.3a6.9,6.9,0,0,1-3.2,5.9c-2,1.5-5,2.2-9.1,2.2H43.4V119.8ZM324.3,83.6a22.1,22.1,0,0,1,9.7,2.1,22.3,22.3,0,0,1,7.3,5.6,24.7,24.7,0,0,1,4.6,8.2,25.6,25.6,0,0,1,1.8,9.4v0.3a27.8,27.8,0,0,1-1.6,9.4,25,25,0,0,1-4.6,8,23.5,23.5,0,0,1-7.3,5.4,21.6,21.6,0,0,1-9.5,2.1,22,22,0,0,1-17.1-7.6,27.4,27.4,0,0,1-4.7-8,29,29,0,0,1-1.6-9.5v-0.3a27.8,27.8,0,0,1,1.6-9.4,23,23,0,0,1,4.6-7.8,22.3,22.3,0,0,1,7.3-5.6,21.6,21.6,0,0,1,9.5-2.1h0Zm0.3-33a62.1,62.1,0,0,0-24.1,4.6,60,60,0,0,0-19.5,12.5,58.4,58.4,0,0,0-12.9,18.5,55.7,55.7,0,0,0-4.6,22.7v0.3a56.4,56.4,0,0,0,17.4,41.1,61.6,61.6,0,0,0,19.3,12.3,66.8,66.8,0,0,0,48.2,0,61.4,61.4,0,0,0,19.3-12.4,57.4,57.4,0,0,0,12.9-18.5,55.1,55.1,0,0,0,4.8-22.8v-0.3a56.3,56.3,0,0,0-17.6-41.1A59.1,59.1,0,0,0,348.6,55a63.3,63.3,0,0,0-24-4.5h0ZM43.4,81.2H59.5q12,0,12,7.6v0.3c0,5.1-4,7.7-11.8,7.7H43.4V81.2h0ZM505.8,53V164.6h37.3V53H505.8ZM373.6,53l45.3,112.4h35.7L499.9,53H458.8l-21.7,62.6L415.4,53H373.6ZM162.6,53V84.5h32.9v80h37.3v-80h32.8V53h-103Zm-44.4,0V164.6h37.3V53H118.2ZM7,53V164.6H68.9a69.1,69.1,0,0,0,18.5-2.2,41.3,41.3,0,0,0,13.6-6.6,27.1,27.1,0,0,0,8.1-9.7,28.8,28.8,0,0,0,2.7-12.4v-0.3q0-11.5-6.4-17.7t-17.2-9.4A34.1,34.1,0,0,0,102.7,97q5.4-6.2,5.4-16.3V80.4a24.6,24.6,0,0,0-1.9-10.1,24.1,24.1,0,0,0-5-7.3,31.6,31.6,0,0,0-12.6-7.5Q81.1,53,69.5,53H7ZM136.8,10.5a15.7,15.7,0,1,1-15.7,15.7,15.6,15.6,0,0,1,15.7-15.7h0ZM524.4,5a21.2,21.2,0,1,0,21.2,21.2A21.2,21.2,0,0,0,524.4,5h0ZM136.8,5A21.2,21.2,0,1,0,158,26.2,21.2,21.2,0,0,0,136.8,5h0Zm0,0"/>
</svg>
